<svg width="1762" height="1004" xmlns="http://www.w3.org/2000/svg" xmlns:xlink="http://www.w3.org/1999/xlink" xml:space="preserve" overflow="hidden"><title>Easy to Use</title><g transform="translate(-1030 -671)"><g><g><g><path d="M83.6667 177.792 83.6667 826.208 920.333 826.208 920.333 177.792ZM899.417 198.708 899.417 334.667 104.583 334.667 104.583 198.708ZM104.583 805.292 104.583 355.583 899.417 355.583 899.417 805.292Z" fill="#FFC000" transform="matrix(1.0757 0 0 1 1712 671)"/><path d="M679.792 261.458C679.792 273.01 670.427 282.375 658.875 282.375 647.323 282.375 637.958 273.01 637.958 261.458 637.958 249.906 647.323 240.542 658.875 240.542 670.427 240.542 679.792 249.906 679.792 261.458Z" fill="#FFC000" transform="matrix(1.0757 0 0 1 1712 671)"/><path d="M753 261.458C753 273.01 743.635 282.375 732.083 282.375 720.531 282.375 711.167 273.01 711.167 261.458 711.167 249.906 720.531 240.542 732.083 240.542 743.635 240.542 753 249.906 753 261.458Z" fill="#FFC000" transform="matrix(1.0757 0 0 1 1712 671)"/><path d="M826.208 261.458C826.208 273.01 816.844 282.375 805.292 282.375 793.74 282.375 784.375 273.01 784.375 261.458 784.375 249.906 793.74 240.542 805.292 240.542 816.844 240.542 826.208 249.906 826.208 261.458Z" fill="#FFC000" transform="matrix(1.0757 0 0 1 1712 671)"/></g></g></g><g><g><g><path d="M1109.06 1354.87 1109.06 1121.12 1195 1121.12 1195 1193.31 1280.94 1193.31 1280.94 1354.87 1109.06 1354.87ZM1215.62 1129.72 1258.59 1172.69 1215.62 1172.69 1215.62 1129.72ZM1215.62 1100.5 1088.44 1100.5 1088.44 1375.5 1301.56 1375.5 1301.56 1176.12 1215.62 1100.5Z"/><path d="M1129.69 1227.69 1260.31 1227.69 1260.31 1241.44 1129.69 1241.44Z"/><path d="M1129.69 1200.19 1174.37 1200.19 1174.37 1213.94 1129.69 1213.94Z"/><path d="M1129.69 1255.19 1260.31 1255.19 1260.31 1268.94 1129.69 1268.94Z"/><path d="M1129.69 1282.69 1260.31 1282.69 1260.31 1296.44 1129.69 1296.44Z"/><path d="M1129.69 1310.19 1260.31 1310.19 1260.31 1323.94 1129.69 1323.94Z"/></g></g></g><g><g><g><path d="M346.198 152.327C339.274 135.628 320.131 127.89 303.432 134.813 289.584 140.516 281.438 155.178 283.475 169.433L230.934 191.427C225.232 181.652 215.05 174.321 203.646 172.284L203.646 115.671C217.494 112.005 228.083 99.3791 228.083 84.3093 228.083 66.3885 213.421 51.726 195.5 51.726L195.5 51.726C177.579 51.726 162.917 66.3885 162.917 84.3093 162.917 99.3791 173.506 112.005 187.354 115.671L187.354 171.877C175.543 173.913 165.768 181.245 160.066 191.02L107.525 169.026C109.561 154.771 101.823 140.108 87.5677 134.406 70.8687 127.482 51.726 135.221 44.8021 151.92 37.8781 168.619 45.6166 187.761 62.3156 194.685 76.1635 200.387 92.0479 195.907 100.601 184.096L154.363 206.089C153.956 207.719 153.956 209.755 153.956 211.384 153.956 220.345 156.807 228.898 162.102 235.822L119.744 278.587C107.118 271.256 90.826 272.885 80.2364 283.475 67.6104 296.101 67.6104 316.873 80.2364 329.499 92.8625 342.125 113.634 342.125 126.26 329.499 136.85 318.909 138.479 302.618 131.148 289.992L174.321 246.819C180.43 250.484 187.354 252.521 194.685 252.521 195.093 252.521 195.093 252.521 195.5 252.521 195.907 252.521 195.907 252.521 196.315 252.521 203.646 252.521 210.57 250.484 216.679 246.819L259.852 289.992C252.521 302.618 254.15 318.909 264.739 329.906 277.366 342.532 298.137 342.532 310.763 329.906 323.389 317.28 323.389 296.508 310.763 283.882 300.174 273.293 283.882 271.663 271.256 278.995L228.898 236.229C234.193 229.305 237.044 221.159 237.044 211.792 237.044 210.162 237.044 208.126 236.636 206.497L290.399 184.503C298.952 195.907 314.836 200.795 328.684 195.093 344.976 187.761 353.122 169.026 346.198 152.327Z" transform="matrix(1 0 0 1 2057 1042)"/></g></g></g><g><g><g><path d="M1700.25 1238C1701.28 1238 1617.75 1155.5 1617.75 1155.5L1617.75 1207.06C1563.09 1231.81 1397.75 1207.06 1397.75 1207.06 1397.75 1207.06 1514.97 1296.78 1617.75 1286.12L1617.75 1320.5 1700.25 1238Z" fill="#FFC000"/></g></g></g></g></svg>