<?xml version="1.0" encoding="UTF-8" standalone="no"?><!DOCTYPE svg PUBLIC "-//W3C//DTD SVG 1.1//EN" "http://www.w3.org/Graphics/SVG/1.1/DTD/svg11.dtd"><svg width="100%" height="100%" viewBox="0 0 768 768" version="1.1" xmlns="http://www.w3.org/2000/svg" xmlns:xlink="http://www.w3.org/1999/xlink" xml:space="preserve" xmlns:serif="http://www.serif.com/" style="fill-rule:evenodd;clip-rule:evenodd;stroke-miterlimit:1.5;"><path d="M127.864,164.365c32.725,33.973 81.139,71.454 123.284,115.206c50.182,52.095 78.125,83.229 92.54,107.318c14.414,24.089 15.785,52.777 16.943,106.764c1.568,73.125 -7,155.478 -7,155.478l97.562,1.118c0,0 10.698,-97.625 11.39,-143.783c0.603,-40.2 -2.157,-81.345 -5.739,-103.164c-1.504,-9.162 -3.056,-18.342 -2.25,-27.75c6.527,-76.178 152.398,-217.18 158.569,-229.386" style="fill:#edb63e;stroke:#edb63e;stroke-width:29.17px;"/><path d="M141.066,155.743c76.716,25.184 226.803,212.711 234.232,250.476" style="fill:none;stroke:#f1ce82;stroke-width:25px;"/><path d="M375.298,406.219c5.045,25.648 7.911,53.985 8.529,95.533c0.837,56.277 -5.288,121.56 -5.288,121.56l51.732,-0.062c0,0 7.611,-76.114 7.981,-111.637c0.322,-30.938 2.076,-49.256 -5.63,-108.035" style="fill:#f1ce82;stroke:#f1ce82;stroke-width:25px;"/><path d="M432.621,403.577c-7.706,-58.779 63.578,-170.586 105.119,-199.358" style="fill:none;stroke:#f1ce82;stroke-width:25px;"/><path d="M201.839,130.603c111.88,39.268 162.019,251.381 204.216,293.977" style="fill:none;stroke:#f1ce82;stroke-width:25px;stroke-linecap:square;"/><path d="M311.184,129.168c51.709,60.465 69.174,243.066 94.871,295.411" style="fill:none;stroke:#f1ce82;stroke-width:25px;stroke-linecap:square;"/><path d="M388.457,168.44c26.964,49.215 5.462,195.069 17.598,256.139" style="fill:none;stroke:#f1ce82;stroke-width:25px;stroke-linecap:square;"/><path d="M465.878,208.473c-42.915,38.646 -38.887,185.007 -59.824,216.106" style="fill:none;stroke:#f1ce82;stroke-width:25px;stroke-linecap:square;"/><path d="M99,185.093c20.786,-0.288 10.159,-7.651 28.864,-20.728c40.115,-28.046 81.484,-40.164 138.922,-41.648c87.785,-2.269 154.497,88.968 218.689,88.144c75.747,-0.973 73.365,-20.99 127.688,-64.694c14.371,-11.561 37.598,-23.319 55.837,-23.965" style="fill:#edb63e;stroke:#edb12f;stroke-width:41.67px;stroke-linejoin:round;"/></svg>